<?xml version="1.0"?>
<svg id="Layer_1" data-name="Layer 1" xmlns="http://www.w3.org/2000/svg" viewBox="0 0 401.99 401.99">
  <defs>
    
  </defs>
  <path fill="currentColor" d="m129.69,122.57l5.56,28.89c.78,4.06,3.29,7.59,6.87,9.65l24.58,14.19c4.41,2.55,7.13,7.25,7.13,12.35v17.24s-28.1,0-28.1,0c-8.86,0-16.04,7.18-16.04,16.04v42.01c0,10.19,5.44,19.61,14.27,24.7l57.04,32.92v-140.37c0-10.19-5.44-19.61-14.26-24.7l-57.05-32.94Zm44.16,107.82v43.13l-16.84-9.75c-2.2-1.27-3.56-3.62-3.56-6.17l-.02-23.61c0-1.97,1.59-3.56,3.56-3.57l16.86-.04Z"></path>
  <path fill="currentColor" d="m201,320.59l57.05-32.94c8.82-5.09,14.26-14.51,14.26-24.7v-18.63c0-2.55-1.36-4.9-3.56-6.17l-20.2-11.67v33.24c0,1.27-.68,2.45-1.78,3.09l-18.58,10.72-.02-90.17,17.69-10.21c1.19-.69,2.67.17,2.67,1.54v12.59s23.78-13.72,23.78-13.72l-.02-34.5c.01-10.2-5.43-19.63-14.26-24.73l-57.03-32.91-71.31,41.17,57.05,32.94c8.82,5.09,14.26,14.51,14.26,24.7v140.37Z"></path>
</svg>