<?xml version="1.0"?>
<svg id="Layer_1" data-name="Layer 1" xmlns="http://www.w3.org/2000/svg" viewBox="0 0 1289.72 401.99">
  <defs>
    
  </defs>
  <g>
    <g>
      <path fill="currentColor" d="m357.16,172.56c-4.67-2.47-10.07-3.71-16.19-3.71-6.59,0-12.46,1.37-17.6,4.12-5.14,2.75-9.16,6.53-12.07,11.36-2.9,4.83-4.36,10.38-4.36,16.65h.02s-.02,0-.02,0c0,0,0,0,0,0h0s0,31.58,0,31.58h14.84s0-28.57,0-28.57c.01-4.09.84-10.62,2.47-13.53,1.65-2.94,3.92-5.2,6.83-6.77,2.9-1.57,6.16-2.35,9.77-2.35,3.14,0,6.06.71,8.77,2.12.87.45,1.68.99,2.47,1.6.49-1.11,1.03-2.18,1.66-3.22,1.71-2.85,3.83-5.33,6.33-7.46-.92-.66-1.89-1.27-2.92-1.82Z"></path>
      <path fill="currentColor" d="m387.57,233.25c-6.59,0-12.46-1.39-17.6-4.18-5.14-2.78-9.16-6.61-12.07-11.48-2.9-4.87-4.36-10.4-4.36-16.6s1.45-11.83,4.36-16.66c2.9-4.83,6.93-8.61,12.07-11.36,5.14-2.75,11.01-4.12,17.6-4.12,6.12,0,11.52,1.24,16.19,3.71,4.67,2.47,8.22,6.1,10.65,10.89l-11.3,6.59c-1.88-2.98-4.18-5.18-6.89-6.59-2.71-1.41-5.63-2.12-8.77-2.12-3.61,0-6.87.79-9.77,2.35-2.9,1.57-5.18,3.83-6.83,6.77-1.65,2.94-2.47,6.46-2.47,10.54,0,4.08.82,7.59,2.47,10.54,1.65,2.94,3.92,5.2,6.83,6.77,2.9,1.57,6.16,2.35,9.77,2.35,3.14,0,6.06-.71,8.77-2.12,2.71-1.41,5-3.61,6.89-6.59l11.3,6.59c-2.43,4.71-5.99,8.34-10.65,10.89-4.67,2.55-10.07,3.83-16.19,3.83Z"></path>
      <path fill="currentColor" d="m469.92,175.39c-4.99-4.36-12.03-6.53-21.13-6.53-5.02,0-9.87.65-14.54,1.94-4.67,1.29-8.69,3.24-12.07,5.83l5.77,10.71c2.35-1.96,5.24-3.49,8.65-4.59,3.41-1.1,6.89-1.65,10.42-1.65,5.26,0,9.18,1.2,11.77,3.59,2.59,2.4,3.88,5.75,3.88,10.07v.94s-16.25,0-16.25,0c-6.36,0-11.46.82-15.3,2.47-3.85,1.65-6.61,3.88-8.3,6.71-1.69,2.83-2.53,6-2.53,9.54,0,3.61.96,6.85,2.88,9.71,1.92,2.87,4.65,5.1,8.18,6.71,3.53,1.61,7.65,2.41,12.36,2.41,5.57,0,10.18-1.02,13.83-3.06,2.52-1.41,4.49-3.22,5.95-5.41v7.65s13.89,0,13.89,0v-36.85c0-9.1-2.49-15.83-7.48-20.19Zm-13.42,44.68c-2.87,1.65-6.1,2.47-9.71,2.47-3.77,0-6.71-.78-8.83-2.35-2.12-1.57-3.18-3.69-3.18-6.36,0-2.35.86-4.34,2.59-5.94,1.73-1.61,5.1-2.41,10.12-2.41h15.19s0,7.3,0,7.3c-1.26,3.22-3.32,5.65-6.18,7.3Z"></path>
      <path fill="currentColor" d="m291.1,175.39c-4.99-4.36-12.03-6.53-21.13-6.53-5.02,0-9.87.65-14.54,1.94-4.67,1.29-8.69,3.24-12.07,5.83l5.77,10.71c2.35-1.96,5.24-3.49,8.65-4.59,3.41-1.1,6.89-1.65,10.42-1.65,5.26,0,9.18,1.2,11.77,3.59,2.59,2.4,3.89,5.75,3.89,10.07v.94s-16.25,0-16.25,0c-6.36,0-11.46.82-15.3,2.47-3.85,1.65-6.61,3.88-8.3,6.71-1.69,2.83-2.53,6-2.53,9.54,0,3.61.96,6.85,2.88,9.71,1.92,2.87,4.65,5.1,8.18,6.71,3.53,1.61,7.65,2.41,12.36,2.41,5.57,0,10.18-1.02,13.83-3.06,2.52-1.41,4.49-3.22,5.95-5.41v7.65s13.89,0,13.89,0v-36.85c0-9.1-2.49-15.83-7.48-20.19Zm-13.42,44.68c-2.87,1.65-6.1,2.47-9.71,2.47-3.77,0-6.71-.78-8.83-2.35-2.12-1.57-3.18-3.69-3.18-6.36,0-2.35.86-4.34,2.59-5.94,1.73-1.61,5.1-2.41,10.12-2.41h15.19s0,7.3,0,7.3c-1.26,3.22-3.32,5.65-6.18,7.3Z"></path>
      <path fill="currentColor" d="m616.75,184.16c-2.75-4.87-6.51-8.63-11.3-11.3-4.79-2.67-10.24-4-16.36-4-6.28,0-11.87,1.37-16.78,4.12-4.91,2.75-8.75,6.53-11.54,11.36-2.79,4.83-4.18,10.38-4.18,16.66,0,6.2,1.43,11.73,4.3,16.6,2.86,4.87,6.91,8.69,12.13,11.48,5.22,2.79,11.32,4.18,18.31,4.18,5.49,0,10.38-.88,14.66-2.65,4.28-1.77,7.83-4.3,10.65-7.59l-7.89-9.06c-2.2,2.35-4.71,4.08-7.53,5.18-2.83,1.1-6,1.65-9.54,1.65-4.08,0-7.69-.78-10.83-2.35-3.14-1.57-5.57-3.81-7.3-6.71-1.09-1.83-1.83-3.83-2.23-6h49.32c.08-.71.14-1.45.18-2.24.04-.78.06-1.49.06-2.12,0-6.59-1.37-12.32-4.12-17.19Zm-43.5,5.36c1.53-2.78,3.65-4.96,6.36-6.53,2.71-1.57,5.87-2.35,9.48-2.35s6.65.79,9.36,2.35c2.71,1.57,4.84,3.73,6.42,6.47,1.11,1.94,1.8,4.1,2.08,6.48h-35.73c.33-2.36.99-4.51,2.04-6.42Z"></path>
      <path fill="currentColor" d="m552.47,202.97c.03-.63.05-1.27.05-1.91s-.02-1.29-.05-1.93v-36.11s-14.6,0-14.6,0v11c-1.88-1.21-3.9-2.24-6.08-3.09-4.17-1.62-8.74-2.43-13.71-2.43s-9.47.81-13.67,2.43c-4.2,1.62-7.86,3.9-10.97,6.83-3.12,2.94-5.53,6.39-7.24,10.34-1.71,3.96-2.56,8.27-2.56,12.95s.85,8.99,2.56,12.95c1.71,3.96,4.11,7.41,7.19,10.34,3.09,2.94,6.75,5.22,10.97,6.83,4.23,1.62,8.83,2.43,13.8,2.43s9.46-.81,13.62-2.43c4.17-1.62,7.79-3.88,10.88-6.79,3.09-2.91,5.5-6.35,7.24-10.34,1.47-3.38,2.31-7,2.54-10.87h.02s0-.21,0-.21Zm-16.18,6.27c-.99,2.46-2.38,4.59-4.18,6.39-1.8,1.8-3.88,3.18-6.25,4.14-2.37.96-4.96,1.44-7.78,1.44-2.82,0-5.43-.48-7.82-1.44-2.4-.96-4.48-2.34-6.25-4.14-1.77-1.8-3.15-3.94-4.14-6.43-.99-2.49-1.48-5.2-1.48-8.14,0-3,.49-5.72,1.48-8.18.99-2.46,2.38-4.59,4.18-6.38,1.8-1.8,3.88-3.18,6.25-4.14,2.37-.96,4.96-1.44,7.78-1.44s5.43.48,7.82,1.44c2.4.96,4.48,2.34,6.25,4.14,1.77,1.8,3.15,3.93,4.14,6.38.99,2.46,1.48,5.19,1.48,8.18,0,3-.49,5.73-1.48,8.18Z"></path>
    </g>
    <g>
      <path fill="currentColor" d="m705.39,219.38c-2.64,1.23-5.52,1.84-8.63,1.84-2.94,0-5.64-.48-8.09-1.44-2.46-.96-4.59-2.34-6.39-4.14-1.8-1.8-3.19-3.93-4.18-6.39-.99-2.46-1.48-5.18-1.48-8.18,0-3,.49-5.73,1.48-8.18.99-2.46,2.38-4.59,4.18-6.38,1.8-1.8,3.93-3.18,6.39-4.14,2.46-.96,5.16-1.44,8.09-1.44,3.12,0,5.99.62,8.63,1.84,2.64,1.23,5.04,3.07,7.19,5.53l9.35-8.63c-3-3.66-6.7-6.43-11.11-8.32-4.41-1.89-9.34-2.83-14.79-2.83-4.92,0-9.44.8-13.58,2.38-4.14,1.59-7.75,3.85-10.84,6.79-3.09,2.94-5.49,6.39-7.19,10.34-1.71,3.96-2.56,8.3-2.56,13.04,0,4.74.85,9.08,2.56,13.04,1.71,3.96,4.09,7.41,7.15,10.34,3.06,2.94,6.67,5.2,10.84,6.79,4.17,1.59,8.68,2.38,13.53,2.38,5.52,0,10.48-.96,14.88-2.88,4.41-1.92,8.11-4.71,11.11-8.36l-9.35-8.63c-2.16,2.52-4.56,4.39-7.19,5.62Z"></path>
      <path fill="currentColor" d="m779.44,177.79c-3.09-2.94-6.72-5.22-10.88-6.83-4.17-1.62-8.74-2.43-13.71-2.43-4.92,0-9.47.81-13.67,2.43-4.2,1.62-7.86,3.9-10.97,6.83-3.12,2.94-5.53,6.39-7.24,10.34-1.71,3.96-2.56,8.27-2.56,12.95s.85,8.99,2.56,12.95c1.71,3.96,4.11,7.41,7.19,10.34,3.09,2.94,6.75,5.22,10.97,6.83,4.23,1.62,8.83,2.43,13.8,2.43s9.46-.81,13.62-2.43c4.17-1.62,7.79-3.88,10.88-6.79,3.09-2.91,5.5-6.35,7.24-10.34,1.74-3.99,2.61-8.32,2.61-12.99s-.87-9.07-2.61-13c-1.74-3.93-4.15-7.36-7.24-10.3Zm-6.39,31.48c-.99,2.46-2.38,4.59-4.18,6.39-1.8,1.8-3.88,3.18-6.25,4.14-2.37.96-4.96,1.44-7.78,1.44s-5.43-.48-7.82-1.44c-2.4-.96-4.48-2.34-6.25-4.14-1.77-1.8-3.15-3.94-4.14-6.43-.99-2.49-1.48-5.2-1.48-8.14s.49-5.73,1.48-8.18c.99-2.46,2.38-4.59,4.18-6.38,1.8-1.8,3.88-3.18,6.25-4.14,2.37-.96,4.96-1.44,7.78-1.44,2.82,0,5.43.48,7.82,1.44,2.4.96,4.48,2.34,6.25,4.14,1.77,1.8,3.15,3.93,4.14,6.38.99,2.46,1.48,5.19,1.48,8.18s-.49,5.73-1.48,8.18Z"></path>
      <path fill="currentColor" d="m1054.83,177.79c-3.09-2.94-6.72-5.22-10.88-6.83-4.17-1.62-8.74-2.43-13.71-2.43-4.92,0-9.47.81-13.67,2.43-4.2,1.62-7.85,3.9-10.97,6.83-3.12,2.94-5.53,6.39-7.24,10.34-1.71,3.96-2.56,8.27-2.56,12.95,0,4.68.85,8.99,2.56,12.95,1.71,3.96,4.11,7.41,7.19,10.34,3.09,2.94,6.74,5.22,10.97,6.83,4.23,1.62,8.83,2.43,13.8,2.43s9.46-.81,13.62-2.43c4.17-1.62,7.79-3.88,10.88-6.79,3.09-2.91,5.5-6.35,7.24-10.34,1.74-3.99,2.61-8.32,2.61-12.99s-.87-9.07-2.61-13c-1.74-3.93-4.15-7.36-7.24-10.3Zm-6.38,31.48c-.99,2.46-2.38,4.59-4.18,6.39-1.8,1.8-3.88,3.18-6.25,4.14-2.37.96-4.96,1.44-7.78,1.44s-5.43-.48-7.82-1.44c-2.4-.96-4.48-2.34-6.25-4.14-1.77-1.8-3.15-3.94-4.14-6.43-.99-2.49-1.48-5.2-1.48-8.14,0-3,.49-5.73,1.48-8.18.99-2.46,2.38-4.59,4.18-6.38,1.8-1.8,3.88-3.18,6.25-4.14,2.37-.96,4.96-1.44,7.78-1.44,2.82,0,5.43.48,7.82,1.44,2.4.96,4.48,2.34,6.25,4.14,1.77,1.8,3.15,3.93,4.14,6.38.99,2.46,1.48,5.19,1.48,8.18,0,3-.49,5.73-1.48,8.18Z"></path>
      <path fill="currentColor" d="m1182.55,205.94c-1.35-2.16-3.1-3.9-5.26-5.22-2.16-1.32-4.54-2.37-7.15-3.15-2.61-.78-5.22-1.47-7.82-2.07-2.61-.6-4.99-1.2-7.15-1.8-2.16-.6-3.9-1.39-5.22-2.38-1.32-.99-1.98-2.29-1.98-3.91,0-1.38.39-2.59,1.17-3.64.78-1.05,2.07-1.9,3.87-2.56,1.8-.66,4.11-.99,6.92-.99,2.82,0,5.7.4,8.63,1.21,2.94.81,5.88,2.05,8.81,3.73l4.5-11.06c-2.94-1.86-6.33-3.25-10.16-4.18-3.84-.93-7.73-1.39-11.69-1.39-5.94,0-10.87.89-14.79,2.65-3.93,1.77-6.87,4.14-8.81,7.1-1.95,2.97-2.92,6.25-2.92,9.85,0,3.36.67,6.12,2.02,8.27,1.35,2.16,3.1,3.9,5.26,5.22,2.16,1.32,4.54,2.4,7.15,3.24,2.61.84,5.22,1.54,7.82,2.11,2.61.57,4.99,1.17,7.15,1.8,2.16.63,3.9,1.44,5.22,2.43,1.32.99,1.98,2.32,1.98,4,0,1.32-.42,2.49-1.26,3.51-.84,1.02-2.14,1.81-3.91,2.38-1.77.57-4.09.85-6.97.85-3.78,0-7.51-.61-11.2-1.84-3.69-1.23-6.88-2.8-9.58-4.72l-4.95,10.97c2.82,2.16,6.53,3.91,11.15,5.26,4.62,1.35,9.44,2.02,14.48,2.02,6,0,10.96-.9,14.88-2.7,3.93-1.8,6.88-4.17,8.86-7.1,1.98-2.94,2.97-6.17,2.97-9.71,0-3.3-.67-6.03-2.02-8.18Z"></path>
      <path fill="currentColor" d="m862.27,168.47c-8.61,0-15.34,2.49-20.2,7.46-.09.09-.17.2-.26.3-.09-.1-.17-.2-.26-.3-4.85-4.98-11.59-7.46-20.2-7.46-8.61,0-15.34,2.49-20.2,7.46-4.85,4.98-7.28,12.08-7.28,21.31v35.25s14.84,0,14.84,0v-34.71c0-6,.9-10.31,3.26-12.95,2.37-2.64,5.01-3.96,9.29-3.96s7.6,1.32,9.97,3.96c2.37,2.64,3.05,6.95,3.05,12.95v34.71h.5s13.87,0,13.87,0h.18s0-35.25,0-35.25c0-.76-.04-1.48-.07-2.21.32-4.58,1.46-7.99,3.45-10.2,2.37-2.64,5.69-3.96,9.97-3.96s7.6,1.32,9.97,3.96c2.37,2.64,2.91,6.95,2.91,12.95v34.71s14.69,0,14.69,0v-35.25c0-9.23-2.43-16.34-7.28-21.31-4.85-4.98-11.59-7.46-20.2-7.46Z"></path>
      <path fill="currentColor" d="m963.54,168.47c-8.61,0-15.34,2.49-20.2,7.46-.09.09-.17.2-.26.3-.09-.1-.17-.2-.26-.3-4.85-4.98-11.59-7.46-20.2-7.46-8.61,0-15.34,2.49-20.2,7.46-4.85,4.98-7.28,12.08-7.28,21.31v35.25s14.84,0,14.84,0v-34.71c0-6,.9-10.31,3.26-12.95,2.37-2.64,5.01-3.96,9.29-3.96,4.28,0,7.6,1.32,9.97,3.96,2.37,2.64,3.05,6.95,3.05,12.95v34.71h.49s13.87,0,13.87,0h.18s0-35.25,0-35.25c0-.76-.04-1.48-.07-2.21.32-4.58,1.46-7.99,3.45-10.2,2.37-2.64,5.69-3.96,9.97-3.96s7.6,1.32,9.97,3.96c2.37,2.64,2.91,6.95,2.91,12.95v34.71s14.69,0,14.69,0v-35.25c0-9.23-2.43-16.34-7.28-21.31-4.85-4.98-11.59-7.46-20.2-7.46Z"></path>
      <path fill="currentColor" d="m1098.24,168.47c-8.9,0-15.87,2.49-20.89,7.46-5.02,4.98-7.53,12.08-7.53,21.31v35.25s14.34,0,14.34,0v-34.71c0-6,1.23-10.31,3.68-12.95,2.45-2.64,5.89-3.96,10.31-3.96,4.42,0,7.86,1.32,10.31,3.96,2.45,2.64,3,6.95,3,12.95v34.71s15.19,0,15.19,0v-35.25c0-9.23-2.51-16.34-7.53-21.31-5.02-4.98-11.98-7.46-20.89-7.46Z"></path>
    </g>
  </g>
  <g>
    <path fill="currentColor" d="m107.47,148.6l3.81,19.79c.54,2.78,2.25,5.19,4.71,6.61l14.51,8.42c3.02,1.74,4.88,4.97,4.88,8.46v11.8s-19.25,0-19.25,0c-6.07,0-10.98,4.92-10.98,10.99v28.77c0,6.98,3.72,13.43,9.77,16.92l39.07,22.54v-96.13c0-6.98-3.72-13.43-9.77-16.92l-36.74-21.25Zm27.92,72.53v29.54s-11.53-6.68-11.53-6.68c-1.51-.87-2.43-2.48-2.44-4.22v-16.17c-.01-1.35,1.08-2.44,2.43-2.44l11.55-.03Z"></path>
    <path fill="currentColor" d="m158.63,280.23l34.42-19.89c6.04-3.49,9.77-9.94,9.77-16.92v-12.76c0-1.74-.93-3.36-2.44-4.23l-13.83-7.99v22.76c0,.87-.47,1.68-1.22,2.11l-12.72,7.34v-61.75s12.1-6.99,12.1-6.99c.81-.47,1.83.12,1.83,1.06v8.62s16.28-9.4,16.28-9.4v-23.63c0-6.99-3.73-13.44-9.78-16.94l-39.06-22.54-44.18,25.53,39.07,22.56c6.04,3.49,9.77,9.94,9.77,16.92v96.13Z"></path>
  </g>
</svg>